<svg viewBox="0 0 25 24" xmlns="http://www.w3.org/2000/svg"><path d="M20.5 10V7h-2v3h-3v2h3v3h2v-3h3v-2h-3Zm-7.7 3.4-1.1-.8c-.4-.3-.8-.7-.8-1.4s.5-1.3 1-1.6c1.3-1 2.6-2.1 2.6-4.3 0-2.1-1.3-3.3-2-3.9h1.7L15.4 0H9.2C4.8 0 2.6 2.8 2.6 5.8c0 2.3 1.8 4.8 5 4.8h.8c-.1.3-.4.8-.4 1.3 0 1 .4 1.4.9 2-1.4.1-4 .4-5.9 1.6C1.2 16.6.7 18.1.7 19.2c0 2.3 2.1 4.5 6.6 4.5 5.4 0 8-3 8-5.9 0-2.1-1.1-3.2-2.5-4.4ZM5.2 4.3c0-2.2 1.3-3.2 2.7-3.2 2.6 0 4 3.5 4 5.5 0 2.6-2.1 3.1-2.9 3.1-2.5 0-3.8-3.1-3.8-5.4Zm3.6 18c-3.3 0-5.4-1.5-5.4-3.7s2-2.9 2.6-3.2c1.3-.4 3-.5 3.3-.5h.7c2.4 1.7 3.4 2.4 3.4 4 0 1.9-1.9 3.4-4.6 3.4Z" fill="#ffffff" fill-rule="evenodd" class="fill-000000"></path></svg>