<svg xmlns="http://www.w3.org/2000/svg" viewBox="0 0 372.75 194.04"><defs><style>.cls-1{fill:#fff;}</style></defs><g id="Layer_2" data-name="Layer 2"><g id="Layer_1-2" data-name="Layer 1"><path class="cls-1" d="M211.83,91.22a9.06,9.06,0,0,1,5.59-1.39c.4,0,1.06.23,1-.5s-.67-.48-1.06-.48c-4.88,0-9.75,0-14.62,0a1.49,1.49,0,0,0-1.52,1c-2.28,4.53-4.61,9-6.89,13.58-2.61,5.16-5.19,10.34-7.8,15.51-.18.37-.22.89-.81,1.06-1.86-3.6-3.72-7.17-5.55-10.76-3.28-6.45-6.57-12.9-9.81-19.38a1.54,1.54,0,0,0-1.62-1c-5,0-9.91,0-14.87,0-.33,0-.67,0-1,0s-.83-.11-.86.45.51.52.89.54.92,0,1.38,0c4.19.12,6.9,2.7,6.92,6.75q.06,12.12,0,24.24a7.84,7.84,0,0,1-5.55,7.48,12.17,12.17,0,0,1-3.06.51c-.32,0-.58.09-.59.48s.22.5.55.51h18.87c.35,0,.55-.18.53-.54s-.22-.41-.5-.45c-.61-.08-1.24-.13-1.84-.26-3.24-.71-5.85-2.19-6.73-5.68a10.32,10.32,0,0,1-.39-2.33c0-8.91,0-17.82,0-26.83.53.2.58.56.72.84q3.91,7.68,7.8,15.36c3.17,6.24,6.32,12.48,9.5,18.7.24.48.28,1.18,1.09,1.2s1-.69,1.22-1.21l16.89-33.73c.19-.37.28-.84.77-1.14,0,9.73,0,19.35,0,29a5.93,5.93,0,0,1-5.12,5.88,21.71,21.71,0,0,1-3.22.24c-.4,0-1.07-.26-1.08.46s.71.44,1.14.52a3.2,3.2,0,0,0,.62,0c7.95,0,15.91,0,23.87,0,.59,0,1.7.47,1.7-.52s-1.07-.42-1.65-.44c-5.38-.25-7.36-2.75-7.44-7.3-.15-8.16-.08-16.32,0-24.49C209.31,94.82,209.84,92.63,211.83,91.22Z"/><path class="cls-1" d="M320.7,112.84c-.47,0-.62.2-.74.63-.28,1-.62,2-1,3-2.18,6.16-6.27,10.28-12.77,11.76-4.22,1-8.52.56-12.79.63-.9,0-.68-.68-.68-1.17q0-7.56,0-15.12c0-2.22,0-2.3,2.28-2.18a9.54,9.54,0,0,1,7.65,3.76c1.84,2.45,2.47,5.31,3.05,8.21.1.48,0,1.07.75,1s.51-.65.51-1.06c0-3.75,0-7.5,0-11.25,0-4.58,0-9.16,0-13.74,0-.39.12-.91-.53-.91s-.7.37-.71.84a13.74,13.74,0,0,1-.77,3.64c-1.46,5-5.11,8.86-11.06,8.52-.92,0-1.2-.27-1.19-1.2q0-8.56,0-17.12c0-.9.2-1.26,1.17-1.22,3.74.14,7.49-.21,11.22.27,4.09.53,7.65,1.94,10.17,5.5a30.15,30.15,0,0,1,3.6,8c.15.46.22,1.08.93.93s.4-.74.4-1.15c0-4.37,0-8.74,0-13.12,0-1.12-.26-1.47-1.44-1.47q-21.3.06-42.61,0a2.28,2.28,0,0,0-.37,0c-.41.07-1-.22-1,.53s.59.43,1,.46.75,0,1.13,0c4.09.16,6.78,2.65,6.82,6.6.07,8.49.11,17,0,25.48-.05,3.34-1.45,6-5.71,6.73-.87.14-1.74.11-2.6.17-.32,0-.58.1-.59.49s.24.49.57.5H320c.57,0,1.29.24,1.29-.82,0-5.12,0-10.24,0-15.36C321.25,113.25,321.25,112.87,320.7,112.84Z"/><path class="cls-1" d="M372.74,113.59c0-.41-.07-.73-.59-.75s-.59.27-.71.68c-.26.91-.58,1.81-.89,2.72-2.31,6.68-6.76,10.9-13.85,12.15-3.68.65-7.38.33-11.07.46-1.07,0-1.44-.22-1.42-1.36.07-4.92,0-9.83,0-14.74,0-2.46,0-2.54,2.44-2.39a9.49,9.49,0,0,1,7.43,3.7c1.91,2.51,2.57,5.45,3.11,8.44.08.43.06.84.67.83s.6-.44.6-.87q0-12.61,0-25.23c0-.36.11-.81-.45-.87s-.77.27-.78.75a13.77,13.77,0,0,1-.79,3.77c-1.55,5.16-5.19,8.86-11.21,8.47-.73,0-1-.2-1-1q0-8.74,0-17.49c0-.84.3-1.07,1.09-1,3.78.11,7.57-.23,11.35.26,4.08.54,7.64,2,10.15,5.53a31.12,31.12,0,0,1,3.59,8c.14.43.2,1,.83.9s.49-.67.49-1.08c0-4.41,0-8.83,0-13.24,0-1.21-.4-1.42-1.49-1.42-14,0-28.07,0-42.11.05-.61,0-1.78-.48-1.79.42,0,1.07,1.19.51,1.81.53,4.27.13,7,2.69,7,6.79,0,8.42.1,16.83,0,25.24-.05,3.48-1.53,6.12-5.64,6.79-.66.1-1.31.13-2,.2-.45,0-1.3-.36-1.25.52s.85.36,1.32.46a3.65,3.65,0,0,0,.74,0h42.74c.29,0,.58,0,.87,0,.53,0,.75-.22.75-.74Q372.74,121.34,372.74,113.59Z"/><path class="cls-1" d="M90.49,129.31c0-.65-.59-.47-1-.47-1.92,0-3.83,0-5.75,0-4.57-.19-7.29-2.4-7.27-7.42,0-8.2,0-16.4,0-24.61,0-2,0-4,0-6,0-.57.06-.94.78-1a15.58,15.58,0,0,1,9.93,2.66c4.15,3,6.42,7.3,7.8,12.13a38.49,38.49,0,0,1,.89,4.5c0,.25,0,.66.47.6a.64.64,0,0,0,.62-.67v-.75c0-6,0-12.07,0-18.11,0-1.13-.34-1.38-1.41-1.37-7.87,0-15.74,0-23.61,0H50c-3,0-3,0-3,3,0,5.54,0,11.08,0,16.62,0,.4-.26,1,.43,1.12s.66-.63.77-1.06c.16-.68.17-1.39.3-2.08A24.53,24.53,0,0,1,53.78,95c3.41-4,7.89-5.43,13-5.16.78,0,.71.52.71,1,0,10.41,0,20.82,0,31.23A6.22,6.22,0,0,1,62,128.6c-2.49.46-5,.11-7.47.24-.38,0-.94-.18-1,.46s.52.52.9.52q17.57,0,35.11,0C90,129.82,90.51,130,90.49,129.31Z"/><path class="cls-1" d="M38.08,110.18a24.07,24.07,0,0,0-8.85-3.83c-5-1.31-10.07-2.49-15.08-3.8a16.54,16.54,0,0,1-5.4-2.22,4.77,4.77,0,0,1-1.66-6.62c1.77-3.32,4.86-4.36,8.31-4.59a24.5,24.5,0,0,1,10.36,1.77,17.56,17.56,0,0,1,8.75,6.5,29.54,29.54,0,0,1,3,5.62c.18.45.31.91.92.79s.4-.65.41-1c0-3.87,0-7.74,0-11.62v-.62c0-.3,0-.59-.41-.66a.62.62,0,0,0-.7.4c-.18.37-.36.75-.56,1.11a3,3,0,0,1-4,1.49c-.7-.27-1.39-.56-2.06-.89a35,35,0,0,0-11.68-3.7c-5.7-.58-11,.18-15.64,3.85-4,3.15-5.43,9.6-1.13,14,2.49,2.53,5.67,3.64,8.86,4.62,5,1.54,10.09,2.73,15.12,4.14a20.93,20.93,0,0,1,7.21,3,5.35,5.35,0,0,1,.83,8.26c-2.21,2.5-5.15,3.24-8.28,3.42a23.07,23.07,0,0,1-10.87-2.3c-6.64-3-12.09-7.19-13.65-14.89-.07-.37-.07-.81-.63-.73s-.43.54-.43.89c0,2.87,0,5.75,0,8.62s0,5.5,0,8.25c0,.4-.27,1,.4,1.14s.68-.44.86-.85a5.42,5.42,0,0,1,3.06-2.92c2.33-.92,4.53-.28,6.65.58,5.6,2.28,11.26,3.94,17.44,3,4.14-.61,7.79-2.07,10.5-5.35C43.59,120.3,43.05,114,38.08,110.18Z"/><path class="cls-1" d="M72.28,78.07H299.84c.55,0,.82-.22.89-.8.17-1.38-.07-1.66-1.53-1.66q-113.53,0-227.06,0c-1.1,0-1.4.29-1.42,1.4C70.7,78.32,71.52,78.07,72.28,78.07Z"/><path class="cls-1" d="M292.8,44c.53-1.73,1.29-3.37,2-5-3.68,2.36-5.56,5.89-6.66,10.09-.73-1.25-.27-2.55-.51-4-.29.56-.46.84-.59,1.13a18.87,18.87,0,0,0-1.54,7.38,4.7,4.7,0,0,1-5.35,4.34c-2.07-.2-3.51-2.42-3.08-4.77a14.29,14.29,0,0,1,5.24-8.5,58.43,58.43,0,0,0,5.41-4.79c1.64-1.8,2.1-4.77,1-6.58s-3.64-2.65-6.21-1.82a11.35,11.35,0,0,0-5.92,4.89,17.91,17.91,0,0,1-4.95,5.25,4.39,4.39,0,0,0-.73-2.3c-.49.3-.36.79-.48,1.16-.9,2.85-2.59,3.66-5.36,2.49a8.9,8.9,0,0,1-4.77-5.47A23,23,0,0,1,258.92,31c-1.28.18-1.6,1-1.67,2a3.21,3.21,0,0,0,.95,2.36c.16.17.49.33.31.58a1,1,0,0,1-.66.3c-.8.13-1.47-.42-2.29-.57-.06,1.06.87,1.48,1.33,2.19a5.27,5.27,0,0,1-5.37-1.46c-.22-.22-.32-.6-.78-.38a10.4,10.4,0,0,1-3.7.84c1.92,2.87,5.42,4.46,5.58,8.48a9.69,9.69,0,0,1,2.64-2.78c.16.36,0,.55-.19.73a17.92,17.92,0,0,0-2.21,4.31,6,6,0,0,0,.76,6.34,7.55,7.55,0,0,0,6.12,3.08c2.2,0,3.43,1.2,3.5,3.44,0,.37,0,.75,0,1.12,0,2.13,0,2.13-1.94,1.58a1.13,1.13,0,0,0-.24-.08,2.27,2.27,0,0,0-2.4.91c-.49.87,0,1.58.63,2.22a4.92,4.92,0,0,0,3.05,1.55c3.1.44,4.14-.27,4.87-3.3.25-1.07.43-2.16.65-3.29.51.23.29.91.88,1.12a24.61,24.61,0,0,0,0-2.72c-.22-1.95-.61-3.88-2.13-5.31a2.4,2.4,0,0,0-2.68-.83c-1.08.42-1.73.06-1.9-1.07a3.18,3.18,0,0,1,.51-2.26,8.25,8.25,0,0,1,3.82-3.08,11.87,11.87,0,0,1,5.71-.75c-.32-.7-1.08-.61-1.43-1.12a7.32,7.32,0,0,1,5.19-.47,5,5,0,0,0-2.29-1.93,28.19,28.19,0,0,0,5.18-5.91,8.08,8.08,0,0,1,4.61-3.58c1.65-.44,2.86-.07,3.53,1a3.26,3.26,0,0,1-.65,3.9,31.55,31.55,0,0,1-4,3.6c-3.47,2.63-6.18,5.81-7.09,10.2-.82,4,.95,7.56,5.05,8.3a13.26,13.26,0,0,0,10.16-2.3,7.57,7.57,0,0,0,3.11-4.1c-.8.15-1.34.8-2.17.64,2.5-3.26,2.83-4.48,2-7.5l-.54,1.12c-.11.23-.24.53-.51.49S292,48.26,292,48A20.41,20.41,0,0,1,292.8,44Z"/><path class="cls-1" d="M75.52,46.21c-.7,3.18-.09,5.67,2.26,7.78a4,4,0,0,1-2.54-1.16,5.78,5.78,0,0,0,1.54,2.89c3,3.44,7,4.34,11.28,4.07,2.79-.18,5.46-2.66,5.69-5a12.32,12.32,0,0,0-1.83-8c-1.77-2.86-4.35-4.87-6.88-7-1.34-1.1-2.77-2.16-3.3-4a2.69,2.69,0,0,1,3.09-3.46,7.8,7.8,0,0,1,4.73,3c1.66,2.17,3.06,4.56,5.31,6.24.45.33.35.55-.09.8s-1.21.53-1.37,1.39a8.7,8.7,0,0,1,4.85.7c-.48.46-1.14.35-1.33,1,.64,0,1.21,0,1.78,0a9.52,9.52,0,0,1,7.08,3.14,3.54,3.54,0,0,1,1,3.1c-.13.71-.5,1.42-1.42,1.14a2.75,2.75,0,0,0-3.59,1.19c-1.57,2.25-1.82,4.78-1.67,7.71.36-.62.58-1,.89-1.5.3,1.48.49,2.79.84,4.06.29,1,.63,2.14,1.8,2.55a5.87,5.87,0,0,0,5.81-1.21,1.92,1.92,0,0,0,.7-2.55,2.24,2.24,0,0,0-2.59-.67c-2,.6-2,.6-2-1.55,0-.33,0-.67,0-1,.21-2.69,1.2-3.66,3.83-3.63a6.27,6.27,0,0,0,2.66-.58c3.15-1.4,5.54-4.84,4-8.5a32.85,32.85,0,0,0-2.77-5.44,6.7,6.7,0,0,1,2.89,2.81,7.64,7.64,0,0,1,2.54-5.07c.91-.81,1.66-1.73,2.5-2.59.19-.19.53-.37.38-.71s-.44-.2-.67-.18a4.75,4.75,0,0,1-2.29-.52A1.31,1.31,0,0,0,117,36a5,5,0,0,1-5.1,1.3c.35-.84,1.5-1.11,1.32-2.17-.38-.13-.6.11-.85.22-.62.27-1.39.6-1.85,0s.39-.88.64-1.32c.94-1.62.36-3.27-1.36-3.71a17.59,17.59,0,0,1-1.06,6c-1,2.84-2.62,5.21-5.7,6.16-2.12.66-3.56-.08-4.33-2.17-.24-.64-.41-1.31-.65-2.12a3.49,3.49,0,0,0-.57,1.94c0,.71-.19.78-.78.36A20.81,20.81,0,0,1,91.87,35,10.39,10.39,0,0,0,85.8,30.5a4.74,4.74,0,0,0-6.22,3.86,5.66,5.66,0,0,0,1.53,4.71,43.31,43.31,0,0,0,5.15,4.51,15,15,0,0,1,5.42,8.16c.62,2.54-.4,4.7-2.48,5.26a4.94,4.94,0,0,1-5.61-3,10,10,0,0,1-.33-2.71,13.47,13.47,0,0,0-2.16-6.95,5.58,5.58,0,0,1-.35,3.78C79,42.41,76.26,39,73.9,38.16c1.54,3,2.87,6.17,2.88,9.79C75.93,47.72,75.84,47.06,75.52,46.21Z"/><path class="cls-1" d="M299.42,139.81q-113.66,0-227.32,0c-1.15,0-1.41.38-1.36,1.43.06,1.26,1,.83,1.54.83q56.67,0,113.35,0h113.6c.86,0,1.53,0,1.53-1.2S300.19,139.81,299.42,139.81Z"/><path class="cls-1" d="M90.92,15.35c4.09,1.72,8.24,3.34,12.35,5,.37.16,1,.14,1,.78-.1,1.5,1,2.09,2,2.71.33.2.88.26.69.86-.35,1.09.34,1.59,1.13,2.05.38.21.94.27.94.87a1.87,1.87,0,0,0,1.45,1.81c1.35.55,1.7,1.67,1.83,3,.07.73-.39,1.38-.33,2.06.82.21,1.32-1,1.76-.55.7.67.25,1.66-.14,2.53A3.4,3.4,0,0,0,117,34.37c.24-.56.51-.48.95-.2a10.57,10.57,0,0,0,3.75,1.24c2.07.37,4.47-.34,6,1.88.46-1.65.93-1.4,2.84.15.54-.4.32-1,.36-1.59A4.83,4.83,0,0,1,133.1,37c.36-.38,0-.86.31-1.47.17,1.13.18,2.13,1.33,2.37-.33.79.17,1.52.06,2.49a2.92,2.92,0,0,0,1.19-2.5c1-.76.87-1.73.51-2.73,0-.1,0-.19,0-.28h1.76c.58.57,1.51.66,1.93,1.68a3.18,3.18,0,0,0-.25-2.07c-.23-.43-.45-.7-.94-.36.56-1.18,0-2-1-2.91a3.89,3.89,0,0,0,1.75-.59l2.26.62c-.2-1-1-1.39-1.52-2-.4.21-.12.7-.49.85.41-1.91-1.3-3.08-3.34-2.28-.33.13-.74.66-1,.38-.5-.65-.51-.1-.72.17-1.39,1.87-3.14,3.1-5.57,3-.65,0-1.44.46-2-.59-.2-.37-1.54-.07-2.35-.14A6.55,6.55,0,0,1,120,28.1h.28a10.88,10.88,0,0,0,3.23,1.57c.66.17.93.17,1.06-.63.69-4.26-1.33-7.48-3.91-10.52a4.33,4.33,0,0,1-.24,2.68c-1.54-1.81-1.54-1.81-2.38-1.89a5.72,5.72,0,0,1-.68,4.74A4,4,0,0,0,116,21.52c-.15-.13-.35-.31-.51-.29-.33,0-.22.38-.26.61a7,7,0,0,1-1.38,3.69,13.25,13.25,0,0,0-1.1-2.64c-.17-.28-.31-.68-.69-.62s-.25.46-.35.73a2.79,2.79,0,0,1-1.16,1.77c-.93-4.44-3.93-6.83-7.88-8.34s-8.16-2.83-12.11-4.59C85.21,9.44,80.07,6.68,76.26,2c-.53-.65-1.05-1.32-1.58-2a13,13,0,0,0,2.39,5.27C80.66,10,85.52,13.08,90.92,15.35Z"/><path class="cls-1" d="M229,31.07c.4.65,1.06.81,2.08.85a2.27,2.27,0,0,0-1.33,2.68c-1.34.38-1.16,1.49-1.17,2.56a5,5,0,0,1,2.17-1.58h1.76c-.82,1.64-.65,2.35.72,3-.92,1.07.18,1.44.7,2-.42-.73.79-1.35.09-2,1.23-.19,1.18-1.28,1.38-2.24.48.38-.19.92.45,1.18a3.18,3.18,0,0,1,1.67-.87c1,0,0,1.26.82,1.48,1.41-1.48,2-1.53,2.77-.21a4.18,4.18,0,0,1,3.6-1.6c2.15-.12,4.32-.24,6.19-1.52.62-.42.73,0,1,.44A2.81,2.81,0,0,0,255.12,37a2.18,2.18,0,0,1,.11-2.53,3.46,3.46,0,0,0,1.79.87c-1-2.8-.65-3.83,1.89-5.42a1.31,1.31,0,0,0,.78-1.06c0-.87.55-1.11,1.15-1.41s1.3-.94,1.09-1.76.18-.86.64-1.09c.91-.46,1.81-1,2-2.08s.76-1.33,1.58-1.66c5.45-2.24,11.07-4.1,16.26-6.95,4.19-2.31,7.9-5.22,10.37-9.44a8.69,8.69,0,0,0,1.5-3.82,10.46,10.46,0,0,0-.78.9c-3.22,4.63-7.82,7.5-12.74,9.91a142.11,142.11,0,0,1-13.68,5.37c-2.93,1.07-5.66,2.37-7.41,5.16a16.19,16.19,0,0,0-1.46,3.58,4.71,4.71,0,0,1-1.34-2.89,8,8,0,0,0-1.91,3.58c-1.08-1.31-1.13-2.85-1.56-4.28-1.26.45-1.45,1.62-2,2.63a6.51,6.51,0,0,1-.61-4.68c-1.29.28-1.6,1.35-2.5,2.25V19c-2.69,3.19-4.36,6.41-4,10.43.08.89.29,1.18,1.22.91a16.06,16.06,0,0,0,3.38-1.66,7.76,7.76,0,0,1-2.29,2c-1.8,1.15-3.87.4-5.8,1.25s-4.28,0-5.93-1.69a4.94,4.94,0,0,0-2.71-1.79c-1.51-.29-2.49-.15-3.1,1.12A3.62,3.62,0,0,0,226.9,32C227.47,31.31,228.61,32.1,229,31.07Z"/><path class="cls-1" d="M276.77,20.62c4-1.56,7.62-3.68,10.05-7.78-2.11,1-3.89,2-5.76,2.76-5,2-9.95,4-14.94,5.92-.38.16-.83.22-.85.76,0,1.25-.9,1.88-1.8,2.53-.31.21-.85.25-.82.82.06,1.17-.75,1.78-1.54,2.39a1.91,1.91,0,0,0-.6.6c-1.35,2.38-.75,4.74-.09,7.33.68-.81.95-1.6,1.52-2.21a17.53,17.53,0,0,1,8.27-4.63c1.86-.56,3.86-.61,5.63-1.5,1.41-.7,2.76-1.45,3.29-3.19-1,.16-1.83.58-2.73.73a8.69,8.69,0,0,1-2.83.12c5.25-1.17,9.87-4.41,10.71-6.84a26.22,26.22,0,0,1-7,2.43c-.46.13-.95.14-1.41.27A1.32,1.32,0,0,0,276.77,20.62Zm-1.45.73a1.38,1.38,0,0,1,.43-.19A2.35,2.35,0,0,0,275.32,21.35Z"/><path class="cls-1" d="M89.64,23.66c1,2.26,3.54,3.64,6.61,4.23,4.87.94,9.5,2.45,12.18,7.45a20.33,20.33,0,0,0,.56-2.92c0-1,.66-2,.14-2.93s-.8-2.18-2-2.71a1.32,1.32,0,0,1-.83-1.3,1.3,1.3,0,0,0-.86-1.36,3.44,3.44,0,0,1-1.88-2.5c-.09-.6-.49-.69-.92-.86-5.18-2.05-10.36-4.08-15.51-6.18C85.44,13.89,83.86,13,82,12.06c2.57,4.28,6.36,6.44,10.56,8l1.57.5a1.88,1.88,0,0,1-1.56-.24h0a33.69,33.69,0,0,1-8.08-2.59,16.67,16.67,0,0,0,10.32,6.58,1.44,1.44,0,0,1,1.22.5c-.81-.06-1.4.18-2-.25h0A16.7,16.7,0,0,1,89.64,23.66Z"/><path class="cls-1" d="M126.7,61a3,3,0,0,0,3.19-.8A5.77,5.77,0,0,0,131.48,55c-.09-.67-.3-1.45-1.13-1.63a2.09,2.09,0,0,0-2,.77,3.52,3.52,0,0,0-.74,1.82c-.16.58-.43.8-1,.44a11.26,11.26,0,0,1-3.23-2.69,2.4,2.4,0,0,1,0-3.1A8.09,8.09,0,0,0,125,44a6.25,6.25,0,0,0-4.17-4.7.93.93,0,0,0-1,.17,8.59,8.59,0,0,0-3,5.57c-.14,1.52-.7,3.4,1.6,4.07.17,0,.32.26.43.43.5.76.87,1.45-.39,1.93-.73.28-.91,1-.94,1.76-.1,2.57,2.27,5.86,5.14,7.06.19-.39-.33-.66-.15-1.1A36.16,36.16,0,0,0,126.7,61Z"/><path class="cls-1" d="M251.19,49.33c.39-.14.77-.27.82-.81.24-2.88-.14-5.55-2.37-7.69-1.18-1.13-1.43-1.12-2.9-.34-3.51,1.88-3.83,7.46-1.76,10.25,1.53,2.07,1.25,3.42-.77,5l-1,.74c-1.56,1.14-1.58,1.15-2.16-.6a2.91,2.91,0,0,0-.86-1.2c-1.11-1.06-2.25-.79-2.79.65a5.94,5.94,0,0,0,2.15,6.08,3.09,3.09,0,0,0,2.52.31,28.84,28.84,0,0,0,4-1.74c.09,0,.22,0,.39,0l-.41.9a9,9,0,0,0,5-5.27,2.86,2.86,0,0,0-1.11-3.7.83.83,0,0,1-.29-1.19A2.69,2.69,0,0,1,251.19,49.33Z"/><path class="cls-1" d="M106.42,17.3A11.47,11.47,0,0,1,111,23.24c.56-1.12.24-2.17.13-3.32A9.33,9.33,0,0,1,114,24a5.81,5.81,0,0,0,.55-3.34c0-.72.17-.86.86-.56.88.37,1.29,1.23,2,1.9a5.21,5.21,0,0,0-.61-3.85c1.41-.3,2.2.69,3.22,1.33-.06-2-1.43-3-2.67-4.12a5.35,5.35,0,0,1-2.07-3.27,3,3,0,0,1,.06-1,1.42,1.42,0,0,0,.18.55,1.48,1.48,0,0,0,.77,1.08c1.16.83,3.45.5,4.82-.71-.5,0-1,.1-1.45.11-.67,0-1.54.06-1.73-.65s.53-1.24,1.14-1.6a6.29,6.29,0,0,1,5.38-.64L123.26,8a4.93,4.93,0,0,0-2.39-1.27c-.78-.22-.66.73-1.14.93a2.14,2.14,0,0,1-1,.25,2.87,2.87,0,0,0-.66.14,2.46,2.46,0,0,0,.41-.38c.86,0,1.37-.48,1.21-1.36s-1.07-1-1.85-1.12c-.39,0-.83.41-1.17,0-.73-.87-1.5-.44-2.27-.14a6,6,0,0,1-1.6.64c-1.27.08-1.3.74-1,1.67,0,0-.09.1-.18.2-.8-1.59-2.61-2.44-2.93-4.4a4.88,4.88,0,0,0-.61,4.92c.17.46.29.78-.12,1.21a8.13,8.13,0,0,0-2.17,4.93C105.75,15.22,105.22,16.47,106.42,17.3Zm8.89-10.9c0,.09,0,.14,0,.17a2.05,2.05,0,0,1-1.61.91s-.17-.24-.14-.29A1.82,1.82,0,0,1,115.31,6.4Z"/><path class="cls-1" d="M250.25,11c.34.27.81.56.69,1.1s-.76.59-1.2.71a3.6,3.6,0,0,1-1.92-.16c1.57,1.71,4.46,1.64,5.45,0a1.5,1.5,0,0,0,.18-.5,7.61,7.61,0,0,1,.05,1,5.79,5.79,0,0,1-2.15,3.11,5.65,5.65,0,0,0-2.57,4.09,5.41,5.41,0,0,1,3.34-1.63c-1,2.67-1.07,3-.42,4a4.38,4.38,0,0,1,2.71-2.19,7.43,7.43,0,0,0,.41,4.33c.77-1.63,1.38-3.11,3.06-4.2a4.91,4.91,0,0,0,0,3.46c.76-2.77,2.58-4.54,4.65-6.12a1.13,1.13,0,0,0,.49-.83,8.92,8.92,0,0,0-1.85-6.66,1.74,1.74,0,0,1-.39-1.87,5.06,5.06,0,0,0-.71-4.82c-.39,2.15-2.43,3-3,5a3.27,3.27,0,0,1,.05-1.55c.1-.28.09-.5-.25-.55a23.33,23.33,0,0,1-3.15-1.17c-.41-.11-.91-.25-1.17.1-.42.55-.84.44-1.4.35a1.88,1.88,0,0,0-2,.77c-.35.53-.08,1,.34,1.44a.78.78,0,0,0,.3.36,5.35,5.35,0,0,0-.55-.11c-.66-.77-1.35-1.2-2.4-.58a4.53,4.53,0,0,0-2.08,2l.6-.09A5.89,5.89,0,0,1,250.25,11Zm5.08-3.09c-.94.24-.94.24-1.89-.88C254.31,7.29,255,7.26,255.33,7.9Z"/><path class="cls-1" d="M233.75,15.61A1.48,1.48,0,0,0,235,17.13a1.61,1.61,0,0,1,0,.22c-1.86.07-3.41,1.93-3.63,4.46,1.21-1.53,3-.91,4.52-1.65-.17.59-.82.43-.78.91,0,.27.29.22.49.28,1.5.45,1.54.56.59,1.75-.07.08-.06.23-.09.39.39.08.87,0,1.07.24.41.41,2,.12,1,1.5-.17.21.12.34.34.36a4.55,4.55,0,0,1,3,2c.58.73,1.23,1.4,2.06,2.34,0-2.14-.26-4,.6-5.69.57-1.12-.22-1.6-.72-2.25-.18-.24-.57,0-.89-.26-1.54-1.23-2.68-4.44-2-6.33.53-1.48-.37-2.55-.81-3.75-.13-.35-.52-.79-.93-.76-1.19.06-2.26-.51-3.42-.55-.38,0-.84-.16-1.12.31,1.32.54,2.28,1.35,2.17,3.05a2.14,2.14,0,0,0-2.6.86c-.7-.71-1.55-.55-2.42.58C232.35,14.73,232.83,16,233.75,15.61Z"/><path class="cls-1" d="M125.28,29.11c2-1.52,2.81-4.26,5.66-4.28-.85-1.08-.75-1.37.6-1.85a1.6,1.6,0,0,1,.48-.11c.85,0,.89-.52.34-.87-1.06-.65-.24-.89.19-1.14a6,6,0,0,1,1.26-.39c.07-.49-.72-.48-.67-1.06,1.36.7,1.36.7,2.38.43a18.26,18.26,0,0,1,2,1c-.23-.79-.08-1.78-1.22-2-.12-1.59-.4-1.87-2.46-2.36.67-.32,1.18-.67,1.21-1.37l2.51-1c-1-.54-1.78-1-2.77-.51-.57-.87-1.41-.84-2.4-.55a6.75,6.75,0,0,0,.15-2.2c.24.13.39.6.76.13a4.8,4.8,0,0,1,1.3-1.15c-1-.25-1.88-.49-2.56.51-.95-.42-2-.52-2.62.35s-1.48,2.13-1.12,3.38a7.41,7.41,0,0,1-2.05,7.17.68.68,0,0,1-.31.17,1.38,1.38,0,0,0-1.28,1.86A10.36,10.36,0,0,1,125.28,29.11Z"/><path class="cls-1" d="M176.78,166.18c-2.59-3.18-5.18-6.37-7.74-9.57-.36-.45-.67-.81-1.3-.79-1.15,0-2.3,0-3.63,0,2,.8,2.38,1.33,2.39,3.41,0,2.5,0,5,0,7.49,0,1.71-.08,3.32-2.17,3.79H169a2.53,2.53,0,0,1-2.06-2.44c-.29-3,0-5.89-.13-8.84,0-.35-.21-.86.21-1s.56.37.79.65q4.58,5.51,9.15,11c.21.25.34.8.82.59s.24-.66.24-1c0-3.37,0-6.74,0-10.11,0-1.57-.05-3.08,1.94-3.47h-4.4a2.6,2.6,0,0,1,2,2.57q0,4.05,0,8.1C177.09,166.72,176.94,166.38,176.78,166.18Z"/><path class="cls-1" d="M220.1,170.11a2.38,2.38,0,0,1-1.88-1.93,21.64,21.64,0,0,1-.2-4.47c0-.51.27-.61.71-.64a3.62,3.62,0,0,1,2.13.55c.74.43.68,1.31,1.11,1.92-.16-1.68.37-3.31.25-5a.29.29,0,0,0-.41.22c-.64,1.81-1.16,2.14-3,2-.57,0-.83-.2-.83-.8,0-1.75,0-3.5,0-5.25,0-.36.06-.71.51-.7a19.41,19.41,0,0,1,4.1.15,4,4,0,0,1,2.81,2.86c.07-.74,0-1.45.08-2.14.07-.86-.23-1.17-1.12-1.15-2.37.05-4.75,0-7.12,0h-3.72c1.71.69,2.19,1.32,2.2,3.14,0,2.66,0,5.33,0,8,0,1.72-.29,3.13-2.31,3.55,4.16.07,8.24.07,12.32.07.45,0,1,.08,1-.63v-3.45C225.71,170.47,222.91,170.7,220.1,170.11Z"/><path class="cls-1" d="M199.3,170.57c3.29,0,6.35,0,9.41,0,1.22,0,2.83.57,3.58-.28s.15-2.39,0-3.7c0,.14-.11.28-.15.42-1,3.42-3.4,3.58-5.95,3.24A2.62,2.62,0,0,1,204,168a21.33,21.33,0,0,1-.21-4.22c0-.54.24-.71.75-.73a2.75,2.75,0,0,1,3.2,2.53c-.22-1.75.37-3.4.21-5.36-1.12,2.44-1.55,2.71-3.36,2.6-.58,0-.83-.24-.81-.82,0-.92,0-1.83,0-2.75,0-3.23,0-3.22,3.28-3.2a3.79,3.79,0,0,1,3.34,1.58,14.39,14.39,0,0,1,.84,1.6c0-4.16.38-3.33-3.09-3.42-.58,0-1.16,0-1.74,0h-6.86c1.61.68,2,1.13,2,2.85,0,3,0,5.91,0,8.87C201.51,169.42,201.22,169.83,199.3,170.57Z"/><path class="cls-1" d="M168.71,193.33c-3.08.25-3.72-1.14-3.69-3.92,0-3.21,0-6.42,0-9.63,0-.87-.29-1.19-1.12-.77a18.42,18.42,0,0,1-5.64,1.58c.37,0,.73,0,1.09,0,1.9.15,2.65.95,2.65,2.85,0,2.46,0,4.91,0,7.37a2.31,2.31,0,0,1-2.48,2.51,4.89,4.89,0,0,0-2,.18c1.16.44,11,.42,11.83,0C169.21,193.24,168.93,193.31,168.71,193.33Z"/><path class="cls-1" d="M143.78,155.81c-1.75.05-3.5,0-5.25,0h-5.21c1.71.7,2.18,1.31,2.18,3.13,0,2.71,0,5.41,0,8.12,0,2.25-.26,2.64-2.17,3.41h6.91c-2-.58-2.45-1.21-2.48-2.92,0-1,0-2.08,0-3.12,0-1.71.31-1.91,2-1.5s2,1.55,2.48,2.83v-6.11c-.56,2.11-1.75,3-3.6,2.92-.54,0-.87-.13-.86-.76,0-1.66,0-3.33,0-5,0-.42.1-.67.6-.76,3.12-.56,5.19.4,6.63,3.2,0-.83,0-1.56,0-2.29S144.65,155.78,143.78,155.81Z"/><path class="cls-1" d="M235,162.19c-.74-.39-1.51-.7-2.27-1-2.16-1-3.35-3.52-.68-5.32h1.48c-.51-.21-1-.45-1.49,0a3.8,3.8,0,0,0-3.19,2.72,3.53,3.53,0,0,0,1.34,4.09c1.09.68,2.26,1.23,3.39,1.84,1.76,1,2.56,2.61,1.93,4.23a3.16,3.16,0,0,1-3.24,2c2.7.34,4.78-.84,5.47-3.05S237.42,163.46,235,162.19Z"/><path class="cls-1" d="M152.24,156.3a.51.51,0,0,0-.48-.23h0c-3.72,1.27-5.55,3.83-5.51,7.71a7.21,7.21,0,0,0,6.77,6.8h0A7.81,7.81,0,0,1,148.8,162C149.17,159.65,149.87,157.46,152.24,156.3Z"/><path class="cls-1" d="M162.52,163.19a7.7,7.7,0,0,0-5.75-7.24c-.36-.1-.71-.27-1,.12a2.54,2.54,0,0,1,1.91,1.06,9.05,9.05,0,0,1,1.68,9.53,5.16,5.16,0,0,1-3.59,3.66c.29.39.65.22,1,.13A7.76,7.76,0,0,0,162.52,163.19Z"/><path class="cls-1" d="M228.09,166.25v4.07c1.22-1.14,2.11.13,3.22.14C229.57,169.55,229,167.82,228.09,166.25Z"/><path class="cls-1" d="M135.71,57.62a2.64,2.64,0,0,0-1.36-1.2c-1.65-1-2.1-.77-2.41,1.06,0,.12-.05.23-.13.57A8.25,8.25,0,0,1,135.71,57.62Z"/><path class="cls-1" d="M107.73,67.41s-.06.14-.12.27a6.21,6.21,0,0,1,2.29,3,5,5,0,0,0,.33-1.24,4.11,4.11,0,0,0-.84-2.76C109.1,66.35,108.3,67.13,107.73,67.41Z"/><path class="cls-1" d="M233.38,58.09c.07.33.38.24.62.24a5.48,5.48,0,0,1,2.93.45c-.33-2.47-.87-2.72-2.8-1.44l-.41.28C233.54,57.74,233.33,57.88,233.38,58.09Z"/><path class="cls-1" d="M238.92,61.79c-.47-.59-.86-1.06-1.22-1.55s-.45-.25-.7,0a4.76,4.76,0,0,0-1.74,3.25A4.43,4.43,0,0,1,238.92,61.79Z"/><path class="cls-1" d="M132.24,54.86A6.31,6.31,0,0,1,135,52.17a3.2,3.2,0,0,0-3.34.43c-.8.58.38,1.15.36,1.8C132,54.55,131.92,54.82,132.24,54.86Z"/><path class="cls-1" d="M257.23,64.78a5.65,5.65,0,0,0-2.53,2.87,5.17,5.17,0,0,1,4.11-.93A6.15,6.15,0,0,1,257.76,65C257.69,64.73,257.52,64.58,257.23,64.78Z"/><path class="cls-1" d="M236.65,55.5c.28-.61.5-1.15.78-1.65.14-.26.23-.47-.12-.58-1.07-.34-2.11-1-3.69-.22A4.72,4.72,0,0,1,236.65,55.5Z"/><path class="cls-1" d="M263.37,68.6c-.4,0-.66.17-.61.58a4,4,0,0,0,1.54,3.2,5,5,0,0,1,.59-3.78Z"/><path class="cls-1" d="M259,71a8.57,8.57,0,0,1,2.38-2.84c-.88.38-1.27-1.46-2.15-.41a3.19,3.19,0,0,0-.48,2.38C258.77,70.36,258.62,70.67,259,71Z"/><path class="cls-1" d="M133.61,62.41a4.12,4.12,0,0,0-2.17-3c-.34-.16-.87.91-1.24,1.49,0,0,0,.08,0,.19A6.73,6.73,0,0,1,133.61,62.41Z"/><path class="cls-1" d="M114.11,66.83c-.23-.49-.32-.72-.45-.93a3.94,3.94,0,0,0-2.27-1.8c-.25-.06-.77,1.11-1.17,1.72,0,0,0,.08,0,.18A5,5,0,0,1,114.11,66.83Z"/><path class="cls-1" d="M104.15,67.78c-.11,0-.24,0-.27.21a5,5,0,0,1,.94,3.22c.79-.65,1.66-2.6,1.3-3.08S104.8,68,104.15,67.78Z"/><path class="cls-1" d="M237,159.82v-3.91c-1,.84-1.83,0-2.78,0C235.72,156.8,236.25,158.35,237,159.82Z"/><path class="cls-1" d="M205.17,154.19a31,31,0,0,0,4.17-2.47C207.13,151,206.37,152.62,205.17,154.19Z"/><path class="cls-1" d="M113,5.18c.22-.71-.47-1.1-.76-1.9-.49.87-.65,1.53-.11,2.08A.63.63,0,0,0,113,5.18Z"/><path class="cls-1" d="M256.78,6a1.41,1.41,0,0,0-.11-1.72c-.17.59-1.15.85-.67,1.64A.52.52,0,0,0,256.78,6Z"/><path class="cls-1" d="M180.17,186.39l.09-.07a2.09,2.09,0,0,0-1.76,1.24h0l.15-.08a.32.32,0,0,1,.1.32h0a3.76,3.76,0,0,0,1.75-1.24h0A.27.27,0,0,1,180.17,186.39Z"/><path class="cls-1" d="M152.24,156.3c.38-.27.94-.09,1.27-.48,0-.08,0-.16,0-.23a3.53,3.53,0,0,0-1.76.48C152,155.91,152.25,155.87,152.24,156.3Z"/><path class="cls-1" d="M155.24,170.74a.57.57,0,0,0-.11-.16s-.08,0-.12,0l-2,0h0A3.3,3.3,0,0,0,155.24,170.74Z"/><path class="cls-1" d="M153.6,155.74s-.06.08-.09.08l1.5,0,.25-.17s0-.09-.06-.09h-1.68C153.6,155.64,153.63,155.69,153.6,155.74Z"/><path class="cls-1" d="M159.27,38.36c.39-.3.86-.55.92-1.21a1.87,1.87,0,0,0-1.19.94,22.8,22.8,0,0,0-5.46,6.74,10.12,10.12,0,0,0,1.81,12.48c3.31,3.31,7.51,5,11.88,6.28,6.36,1.92,12.48,4.36,17.82,8.43a1,1,0,0,0,1.48,0c5.22-4,11.21-6.47,17.45-8.35,4-1.21,7.88-2.67,11.12-5.4,3.72-3.12,5.09-7.29,3.33-11.8a23.34,23.34,0,0,0-7.67-9.62,1.13,1.13,0,0,0-1.08-.68l.82.68a32.52,32.52,0,0,1,4.58,6c1.69,3.11,2.44,6.32.92,9.74-.3.53-.41,1.18-1,1.52-.06.17-.13.35-.21.52,0,0-.18,0-.18,0a.88.88,0,0,1,.39-.78l.75-1.75a11.23,11.23,0,0,0,.25-2.34,13,13,0,0,0-2.56-7.41,48,48,0,0,0-3.08-3.73,25.62,25.62,0,0,1-6-11.7c-.49-2.54.26-4.72,2-5.7a5.75,5.75,0,0,1,4.58-.15c1.4.43,2.78,1,4.17,1.44A11.38,11.38,0,0,0,207,19.61c-.24.26-.61.41-.77.06s.3-.28.54-.3a12.7,12.7,0,0,1,6.61.5,42.26,42.26,0,0,1,4.21,1.84A24.29,24.29,0,0,1,210.7,5.77a14.29,14.29,0,0,1-10.63,3.6c-3.94-.32-7.24-2.12-10.35-4.4a13.58,13.58,0,0,0,8.26,5.4,1.32,1.32,0,0,0,.94.35c-.39,0-.78-.08-1.17-.11A17.72,17.72,0,0,1,186.16,4c-.84-1-1-.65-1.67.07A17.36,17.36,0,0,1,173,10.61a1.36,1.36,0,0,1-1.36.1l.23-.06h0c.4-.11.76-.2,1.13-.28a12.89,12.89,0,0,0,8-5.53c-6.66,5.18-13.58,6.61-21,1a23.89,23.89,0,0,1-6.63,15.85c3.38-1.8,6.74-3.17,10.6-2.23a13.48,13.48,0,0,0-8,2.63c-.26.14-.56.25-.58.76l.83-.51a35,35,0,0,1,4.11-1.43c1.93-.38,3.8-.53,5.27,1.16a5.65,5.65,0,0,1,1,4.95,23.08,23.08,0,0,1-5.11,10.66c-1.14,1.43-2.4,2.76-3.46,4.24-2.47,3.44-3.65,7.15-2,11.34,0,.13.18.28-.12.4a9,9,0,0,1-1.32-6.75C155.31,43.58,157.26,41,159.27,38.36Zm49.9,4.88c.42.17,1.19.16,1.06.82a6.37,6.37,0,0,1-.91,2.15c-.2.31-.69-.09-1-.22l-17.48-7.28-4.94-2.08c-.57-.25-1-.3-1.19.46s-.43,1.32-1.35.77c-.31-.18-.54,0-.67.31-.34.93-1.1,1.78-.18,2.85.46.53.17,1.19-.23,1.71a1.42,1.42,0,0,1-1.67.57c-2.2-.86-4.38-1.77-6.53-2.75a1.47,1.47,0,0,1-.78-1.7,1.62,1.62,0,0,1,1.5-1.45c1.25-.09,1-1.25,1.4-1.94s-.36-.67-.72-.85-.26-.55-.14-.84c.73-1.77,1.47-3.53,2.2-5.29.19-.45.43-.74.93-.41s.84,0,1-.49c.31-.85.82-1.55.09-2.59s.25-2.15,1.88-2.13a12.28,12.28,0,0,1,3,1.1c1.12.44,2.22.94,3.32,1.44a1.52,1.52,0,0,1,.95,1.72,1.72,1.72,0,0,1-1.33,1.48c-.72.2-2,2-1.64,2.21,1.14.81.86,1.65.55,2.69-.09.3.63.43,1,.58C194.62,37.14,201.9,40.17,209.17,43.24ZM181.78,10a14.6,14.6,0,0,0,3-2.55c.29-.31.54-.65,1-.12,2.33,2.82,5.53,4.12,8.93,5A22.66,22.66,0,0,0,198,13a15.85,15.85,0,0,1-9.85-2.63c-.46-.28-.9-.6-1.35-.89s-.84-1.26-1.51-1.12-1,.78-1.57,1.18A16.15,16.15,0,0,1,172.55,13,24.35,24.35,0,0,0,181.78,10ZM165.42,54.19c.12-1.26.82-1.86,2.31-1.87.67,0,1,0,1-.9.06-1.23,1-1.58,2.13-1.58,4.83,0,9.66,0,14.49,0,3.66,0,7.32,0,11,0,1.24,0,2.14.38,2.23,1.77,0,.65.45.67.94.7,1.73.14,2.5.82,2.46,2.16s-1,2.12-2.68,2.12H183.6c-5.25,0-10.49,0-15.74,0C166.11,56.58,165.27,55.73,165.42,54.19Zm10.26,8.41a38.27,38.27,0,0,1,9.44,4.72,1,1,0,0,0,1.34,0A46.47,46.47,0,0,1,200.89,61a23.54,23.54,0,0,0,6.91-3,11.88,11.88,0,0,1-5.58,3.84c-3.8,1.46-7.78,2.42-11.4,4.36a31.28,31.28,0,0,0-4.45,2.74c-.51.4-.76.33-1.25,0a41.7,41.7,0,0,0-12.92-6,18.76,18.76,0,0,1-9-5.11C167,60.39,171.49,61.08,175.68,62.6Z"/><path class="cls-1" d="M241,111.31c5-.08,10,.24,15-.2a24.11,24.11,0,0,0,9.63-2.7,9.48,9.48,0,0,0,3.35-13.88c-1.74-2.46-4.36-3.69-7.19-4.42-4-1-8-1.1-12.1-1.24-4.28-.14-8.58,0-12.87,0H222c-.28,0-.48.12-.51.43s.17.54.52.55c.58,0,1.17,0,1.75,0,3.42.1,5.76,1.86,6.57,5a11.69,11.69,0,0,1,.37,3c0,7.42,0,14.83,0,22.24a17,17,0,0,1-.28,3.35,5.86,5.86,0,0,1-4.55,5,15.43,15.43,0,0,1-3.7.41c-.34,0-.7,0-.69.5s.36.48.7.49H249c.28,0,.49-.12.51-.43s-.17-.54-.52-.55l-2.12,0c-4.4-.07-7.06-2.74-7.09-7.13,0-3,0-6.08,0-9.12C239.7,111.58,240,111.32,241,111.31Zm-1.24-2.1q0-4.63,0-9.25t0-9c0-.51-.16-1.14.73-1.12,4.15.11,8.31-.3,12.44.47,4.82.91,7.1,3.71,7.55,8.42a12.1,12.1,0,0,1-.94,6.33c-1.3,2.79-3.67,4.13-6.5,4.75-4.14.9-8.36.42-12.55.52C239.59,110.36,239.75,109.72,239.75,109.21Z"/><path class="cls-1" d="M129.72,128.6a23.36,23.36,0,0,1-4.34.24c-.4,0-1-.25-1.06.48s.65.5,1.05.5c3.74,0,7.49,0,11.24,0h11.75c.3,0,.59,0,.63-.43s-.28-.55-.65-.56-.66,0-1,0a6.4,6.4,0,0,1-5.2-2.7A58.72,58.72,0,0,1,138,118q-5.37-11.21-10.78-22.37c-1-2.17-2.1-4.35-3.12-6.53-.23-.48-.27-1-1-1.06s-.94.55-1.17,1.06q-2.9,6.23-5.75,12.46c-1.75,3.81-3.45,7.65-5.26,11.44s-3.26,7.77-5.91,11.09c-1.76,2.2-3.8,4.09-6.8,4.46-.48.06-1.12,0-1.1.73s.75.49,1.17.49c5,0,10,0,15,0H114a.5.5,0,0,0,.11-1,9.05,9.05,0,0,0-1-.23c-3.08-.22-5.38-4-4.72-6.61.41-1.6,1.18-3,1.68-4.53.16-.52.54-.65,1.07-.65,5.49,0,11,0,16.49,0,.32,0,.67,0,.85.35a59.78,59.78,0,0,1,3.45,7.87C132.52,127.05,131.75,128.08,129.72,128.6ZM121,115.83c-3,0-6,0-9,0-.67,0-1,0-.65-.88q3.8-8.26,7.55-16.56c.07-.15.18-.28.32-.51.69,1.1,8.13,17,8.39,17.94Z"/><path class="cls-1" d="M174.48,179.24a4.6,4.6,0,0,0-2.95,4.5,4.39,4.39,0,0,0,3.19,3.91,6.12,6.12,0,0,0,4,.15l-.25-.24c-2.52,0-3.24-.68-3.25-3.23,0-.92,0-1.83,0-2.74a2.52,2.52,0,0,1,2.29-2.52,2.63,2.63,0,0,1,3,1.83,6.78,6.78,0,0,1-.31,5.42l.24.24h0c.62-.36.47.19.49.45a11.94,11.94,0,0,1-.24,3.21c-.56,2.95-2.65,3.75-5.16,3.22-.38-.08-.87-.21-1-.65s.39-.65.7-.88a1.43,1.43,0,0,0,.66-1.72,1.6,1.6,0,0,0-1.63-1.12,1.81,1.81,0,0,0-1.57,2.82,4.42,4.42,0,0,0,4.11,2.15c5.47-.1,9-4.41,7.4-10.47C183.07,179,178.36,177.6,174.48,179.24Z"/><path class="cls-1" d="M204.23,179.24a4.59,4.59,0,0,0-2.95,4.5,4.37,4.37,0,0,0,3.19,3.91,6.09,6.09,0,0,0,4,.15l-.24-.24c-2.52,0-3.24-.68-3.25-3.23,0-.92,0-1.83,0-2.74a2.52,2.52,0,0,1,2.28-2.52,2.62,2.62,0,0,1,3,1.83,6.74,6.74,0,0,1-.3,5.42l.24.24c.62-.36.46.19.48.45a12.35,12.35,0,0,1-.23,3.21c-.57,2.95-2.66,3.75-5.17,3.22-.37-.08-.86-.21-1-.65s.38-.65.69-.88a1.42,1.42,0,0,0,.66-1.72,1.59,1.59,0,0,0-1.62-1.12,1.81,1.81,0,0,0-1.57,2.82,4.42,4.42,0,0,0,4.1,2.15c5.47-.1,9-4.41,7.41-10.47C212.81,179,208.11,177.6,204.23,179.24Z"/><path class="cls-1" d="M195.23,169c2-2,2.4-4.34,2-7a7.48,7.48,0,0,0-5.7-5.94c-3.33-.53-6.67-.15-10.35-.29,2.15.78,2.55,1.35,2.55,3.35v8c0,2.09-.37,2.65-2.4,3.42,3.25,0,6.32.12,9.38-.05A6.54,6.54,0,0,0,195.23,169ZM188,170.23C186.66,170,186,169,186,167.41s0-3.41,0-5.12,0-3.49,0-5.24c0-.54,0-.92.75-1a7,7,0,0,1,7.35,4c1.35,3,.73,6.88-1.41,8.93A5.13,5.13,0,0,1,188,170.23Z"/><path class="cls-1" d="M199.35,188.31c-.37,0-.75,0-1.12,0-1.1.14-1.54-.21-1.49-1.42.1-2.37,0-4.74,0-7.12,0-.38.23-.9-.25-1.13s-.74.26-1,.54c-2.75,2.83-5.5,5.68-8.24,8.52a1.91,1.91,0,0,0-.33.37c-.62,1.07-.14,2,1.05,2,1.46,0,2.92,0,4.37,0,.54,0,1.3-.36,1.58.32a2.07,2.07,0,0,1-.63,2.17,2.51,2.51,0,0,1-1.67.74,1.94,1.94,0,0,0-1.41.34h9.65c-.67-.37-1.37-.38-2-.77a2.31,2.31,0,0,1-1-2.39c.1-.81,1-.3,1.59-.41a2.82,2.82,0,0,1,.87,0c.71.07.95-.22.95-.93S200,188.27,199.35,188.31Zm-6.07,0c-1.93,0-3.86,0-6.06,0,2.27-2.45,4.56-4.5,6.78-6.71,0,2,0,3.89,0,5.84C194,188,193.94,188.33,193.28,188.32Z"/></g></g></svg>