<svg xmlns="http://www.w3.org/2000/svg" viewBox="0 0 399.59 459.39"><defs><style>.cls-1{fill:#80021c;}</style></defs><g id="Layer_2" data-name="Layer 2"><g id="Layer_1-2" data-name="Layer 1"><path class="cls-1" d="M199.77,127.92c20.33,0,40.67-.14,61,.16a13.91,13.91,0,0,1,8.73,3.53c26,25.6,51.78,51.43,77.6,77.23,3.51,3.5,3.42,6.22-.2,9.85Q277.93,287.6,209,356.54c-8.89,8.93-9.17,9.43-18.58,0Q121.68,287.39,52.55,218.65c-3.58-3.58-3.63-6.33-.12-9.84C78.26,183,104,157.19,130,131.59a13.89,13.89,0,0,1,8.74-3.51C159.1,127.78,179.44,127.92,199.77,127.92Zm0,215.86c18.76-42.19,36.84-82.9,55.17-124.14H144.57ZM73.87,203.55c-1,1-2,2.17-3.45,3.74a11.89,11.89,0,0,0,2.12.58c19.32,0,38.63.11,58-.07,1.62,0,3.67-1.4,4.77-2.76q25-30.87,49.68-61.94a34,34,0,0,0,2.17-3.69c-15.29,0-29.77.1-44.24-.08a10.5,10.5,0,0,0-8.29,3.43m77.63-3.35a29.52,29.52,0,0,0,1.59,2.74c16.94,21.2,33.85,42.42,50.95,63.49,1.1,1.37,3.65,2.17,5.54,2.19,18.15.16,36.31.11,54.46.09,1.24,0,2.47-.21,4.58-.4-1.93-2.05-3.21-3.5-4.57-4.87-17.07-17.08-34.69-33.65-51-51.43-8.39-9.15-17.09-13.22-29.4-12C234,140.21,223.51,139.41,212.21,139.41ZM180.32,328.29a4.93,4.93,0,0,0-.34-1.06c-15.53-35-31-70-46.75-104.83-.68-1.5-3.52-2.83-5.37-2.85-17.66-.21-35.33-.13-53-.11-1.25,0-2.5.17-3.23.23ZM328.13,219.42c-18.55,0-37.19.1-55.82-.09-3.73,0-5.51,1.18-7,4.6-14.73,33.46-29.65,66.83-44.51,100.24-.71,1.61-1.27,3.29-1.64,4.26ZM199.74,142.7,148,207.39H251.49Z"/><path class="cls-1" d="M194,37.38c0-9.82.06-19.63,0-29.45,0-4.13,1.07-7.4,5.67-7.9,3.48-.38,5.82,2.81,5.83,7.7q.06,29.94,0,59.89c0,4.88-2.37,8.07-5.86,7.65-4.58-.55-5.67-3.83-5.64-8C194.05,57.34,194,47.36,194,37.38Z"/><path class="cls-1" d="M194,421.46c0-9.65,0-19.29,0-28.94,0-5.43,2-8.39,5.62-8.49s5.86,3,5.86,8.24q0,29.44,0,58.88c0,5.3-2.21,8.32-5.87,8.24s-5.59-3.06-5.6-8.49C194,441.08,194,431.27,194,421.46Z"/><path class="cls-1" d="M118.28,96.51c-.75-.64-2.78-1.67-3.74-3.32C103.94,75.12,93.5,57,83.05,38.8c-1.91-3.32-1.13-6.16,2.17-8s5.87-.36,7.55,2.52C103.38,51.54,114,69.8,124.41,88.16,126.78,92.34,124.11,96.61,118.28,96.51Z"/><path class="cls-1" d="M281.06,96.57c-6.08-.16-8.24-4.53-5.66-9.11C281.27,77,287.33,66.7,293.31,56.34c4.24-7.35,8.46-14.7,12.72-22,1.92-3.31,4.41-5.8,8.45-3.39,3.86,2.3,3.39,5.52,1.37,9-10.19,17.54-20.24,35.16-30.51,52.64C284.22,94.48,282,95.72,281.06,96.57Z"/><path class="cls-1" d="M66.57,148.31c0,5.19-3.45,7.85-7.08,6.65a19.73,19.73,0,0,1-3.56-1.78c-17-9.81-34-19.58-50.9-29.54a11.42,11.42,0,0,1-4.71-5.29c-.48-1.28.86-4.24,2.17-4.94,1.73-.91,4.72-1.18,6.34-.26q27.39,15.41,54.46,31.37C64.93,145.49,65.93,147.54,66.57,148.31Z"/><path class="cls-1" d="M332.93,148.26c.64-.75,1.65-2.79,3.29-3.76,18.07-10.59,36.23-21,54.39-31.48,3.29-1.89,6.15-1.18,8,2.13s.43,5.88-2.46,7.56q-27.37,15.93-54.87,31.64C337.15,156.72,332.88,154.08,332.93,148.26Z"/><path class="cls-1" d="M337.54,303.5a39.72,39.72,0,0,1,4.43,1.8q26.8,15.4,53.56,30.92c4.22,2.45,5.36,6.36,2.4,8.89-1.54,1.3-5,2.22-6.51,1.38q-28.1-15.66-55.74-32.1c-1.57-.93-2.64-4.3-2.35-6.29C333.59,306.35,336.12,305,337.54,303.5Z"/><path class="cls-1" d="M125.94,367.81c-1,2.1-1.49,3.5-2.22,4.78q-15.06,26.15-30.16,52.26c-1.88,3.26-4.15,5.88-8.38,3.72-3.49-1.78-4-4.81-1.35-9.35,10-17.45,20.12-34.84,30.11-52.3,1.78-3.12,4.19-5.15,7.64-3.72C123.4,364,124.56,366.29,125.94,367.81Z"/><path class="cls-1" d="M280.94,362.8c.89.74,3.09,1.81,4.13,3.57,10.53,17.91,20.87,35.93,31.26,53.93,1.88,3.26,1.44,6.16-1.83,8.15-3.47,2.11-6.13.52-7.92-2.56q-15.78-27.17-31.4-54.43C272.77,367.24,275.17,363,280.94,362.8Z"/><path class="cls-1" d="M66.6,310.94c-.63.78-1.58,2.88-3.21,3.84-18.06,10.61-36.23,21-54.37,31.5-3.28,1.9-6.17,1.34-8.11-1.95-2.07-3.5-.37-6.12,2.68-7.9q26.94-15.65,54-31.15C62.09,302.7,66.51,305,66.6,310.94Z"/></g></g></svg>