<svg xmlns="http://www.w3.org/2000/svg" viewBox="0 0 125.27 176.79"><defs><style>.cls-1{fill:#80021c;}</style></defs><g id="Layer_2" data-name="Layer 2"><g id="Layer_1-2" data-name="Layer 1"><path class="cls-1" d="M79.21,176.79c-5.6-15.16-10.88-29.48-16.69-45.19-5.74,15.57-11,29.79-16.68,45.17-3.1-4.47-5.73-8.36-8.45-12.17-2.89-4-5.15-10.08-9-11.43s-9.41,2-14.21,3.26c-4,1.09-7.95,2.24-13.24,3.73,6.42-17.57,12.48-34.15,18.64-51-6.85-3.11-10.41-8.06-9.07-15.85.15-.87-.86-2.32-1.73-2.93C1.94,85.62.4,81.43,2.7,73.77a5.42,5.42,0,0,0-.15-3.56C-1.53,61.9-.77,57.79,5.19,52.35c-.38-5.53-1.6-10.27-.77-14.63,1-5.18,5.67-7.49,10.71-8.41.38-12.51,4.8-16.95,16-16.2C37.22,2.83,42.45,1,52.21,5.77c9.13-7.71,14-7.7,22.41.08C85.23,2.2,90,4.4,94.91,15.27c13-1.19,18,5.67,16.88,16.63,11.11,5.43,13.35,11.06,8.42,21.2,7.14,9.19,6.81,14.36-1.57,22.5,3.43,6.92,2.69,13.07-3.86,18a3.28,3.28,0,0,0-1.11,2.5c.59,6.37-2,11-7.81,14.07l18.28,50c-7.87-2.27-14.93-4-21.72-6.39-4.74-1.7-7.4-.81-10,3.63C88.65,163.85,84,169.79,79.21,176.79ZM108.83,63A46.39,46.39,0,0,0,62.94,16.62c-25.48-.22-46.47,20.7-46.49,46.32a46.19,46.19,0,1,0,92.38.1Z"/><path class="cls-1" d="M62.76,102.51a39.54,39.54,0,1,1,39.42-39.4A39.55,39.55,0,0,1,62.76,102.51Z"/></g></g></svg>